<?xml version="1.0" encoding="UTF-8"?>
<svg version="1.1" xmlns="http://www.w3.org/2000/svg" width="20" height="20">
<path d="M0 0 C3.09808648 2.06539099 3.84031866 3.31772518 4.6875 6.9375 C4.790625 7.948125 4.89375 8.95875 5 10 C5.56116703 13.36700216 6.33892724 16.01006904 8 19 C6.68 19 5.36 19 4 19 C3.34 18.34 2.68 17.68 2 17 C0.01287788 17.03257577 -1.97428708 17.06691237 -3.9609375 17.12109375 C-6.91489732 16.94566702 -8.70951464 15.80462483 -11 14 C-12.60420518 10.79158965 -12.47462745 7.4806013 -12 4 C-9.16760963 -0.72065061 -5.06756055 -1.01975551 0 0 Z M-5 2 C-6.65 3.65 -8.3 5.3 -10 7 C-9.34 8.98 -8.68 10.96 -8 13 C-5.19954954 13.85650653 -5.19954954 13.85650653 -2 14 C0.58333333 12.58333333 0.58333333 12.58333333 2 10 C1.85650653 6.80045046 1.85650653 6.80045046 1 4 C-0.98 3.34 -2.96 2.68 -5 2 Z " fill="#AA8BFF" transform="translate(12,0)"/>
</svg>
